<svg width="24" height="29" viewBox="0 0 24 29" fill="none" xmlns="http://www.w3.org/2000/svg">
<path d="M23.3205 13.4863L20.0006 6.76691V2.00049C20.0006 1.47006 19.7899 0.961348 19.4148 0.586268C19.0398 0.211198 18.5311 0.000488281 18.0006 0.000488281H6.0006C5.4702 0.000488281 4.96149 0.211198 4.58642 0.586268C4.21134 0.961348 4.00063 1.47006 4.00063 2.00049V6.76691L0.68074 13.4864C0.5175 13.815 0.448151 14.1823 0.480341 14.5479C0.512531 14.9134 0.645011 15.2629 0.863181 15.558L10.098 28.1027C10.1604 28.1875 10.248 28.2504 10.3484 28.2825C10.4487 28.3146 10.5566 28.3142 10.6566 28.2813C10.7567 28.2484 10.8438 28.1848 10.9056 28.0995C10.9674 28.0142 11.0006 27.9116 11.0006 27.8062V18.3739C10.058 18.1305 9.2364 17.5517 8.69 16.7459C8.1436 15.9401 7.9098 14.9627 8.0325 13.9969C8.1552 13.0311 8.6259 12.1432 9.3564 11.4996C10.0869 10.856 11.0271 10.5009 12.0006 10.5009C12.9742 10.5009 13.9144 10.856 14.6449 11.4996C15.3754 12.1432 15.8461 13.0311 15.9687 13.9969C16.0914 14.9627 15.8576 15.9401 15.3112 16.7459C14.7648 17.5517 13.9433 18.1305 13.0006 18.3739V27.8062C13.0006 27.9116 13.0339 28.0142 13.0957 28.0995C13.1574 28.1848 13.2446 28.2484 13.3446 28.2813C13.4447 28.3141 13.5526 28.3146 13.6529 28.2825C13.7532 28.2504 13.8409 28.1875 13.9033 28.1026L23.138 15.5579C23.3562 15.2628 23.4887 14.9133 23.5209 14.5478C23.553 14.1823 23.4837 13.8149 23.3205 13.4863ZM18.0006 6.00049H6.0006V2.00049H18.0006V6.00049Z" fill="black"/>
</svg>
