<svg width="26" height="21" viewBox="0 0 26 21" fill="none" xmlns="http://www.w3.org/2000/svg">
<path d="M25.9988 1.71055C25.9984 1.69205 25.9974 1.67359 25.996 1.65516C25.9948 1.64011 25.9933 1.62516 25.9915 1.61032C25.9894 1.59304 25.9867 1.57586 25.9836 1.55868C25.9809 1.54318 25.9779 1.52781 25.9745 1.51258C25.9708 1.49628 25.9665 1.48014 25.962 1.46402C25.9576 1.44861 25.9532 1.43335 25.9482 1.41827C25.9429 1.40252 25.9371 1.38702 25.931 1.37152C25.9253 1.35668 25.9194 1.34201 25.913 1.32758C25.9061 1.31232 25.8987 1.29733 25.8912 1.28237C25.884 1.26818 25.8766 1.25415 25.8688 1.24036C25.8606 1.22611 25.852 1.21209 25.8431 1.19814C25.8342 1.18408 25.8249 1.17028 25.8153 1.1567C25.8063 1.14392 25.7968 1.13138 25.7871 1.11893C25.7761 1.10492 25.7648 1.09131 25.7531 1.07791C25.7476 1.0716 25.7429 1.06487 25.7372 1.05866C25.7324 1.05341 25.727 1.04896 25.7221 1.04383C25.7101 1.0312 25.6976 1.01907 25.6849 1.00708C25.6731 0.995975 25.6612 0.984965 25.649 0.974495C25.637 0.964245 25.6246 0.954535 25.6121 0.944825C25.5984 0.934205 25.5848 0.923685 25.5707 0.913885C25.5585 0.905375 25.5459 0.897465 25.5333 0.889505C25.5184 0.880105 25.5036 0.870735 25.4883 0.862185C25.475 0.854745 25.4614 0.847995 25.4478 0.841165C25.4327 0.833625 25.4177 0.826025 25.4023 0.819285C25.3874 0.812695 25.3721 0.806955 25.3567 0.801095C25.342 0.795485 25.3274 0.789775 25.3125 0.784895C25.2963 0.779555 25.2798 0.775095 25.2633 0.770575C25.2485 0.766555 25.2338 0.762495 25.2189 0.759165C25.2024 0.755475 25.1857 0.752575 25.1689 0.749705C25.1531 0.747025 25.1373 0.744395 25.1213 0.742475C25.1055 0.740555 25.0896 0.739265 25.0735 0.738115C25.0561 0.736825 25.0386 0.735815 25.0211 0.735455C25.014 0.735285 25.0071 0.734375 25 0.734375H1C0.99329 0.734375 0.98682 0.735265 0.9801 0.735385C0.96167 0.735745 0.94324 0.736785 0.92487 0.738155C0.90967 0.739315 0.89459 0.740505 0.87964 0.742315C0.86285 0.744325 0.84619 0.747065 0.82947 0.749965C0.81354 0.752715 0.79761 0.755435 0.78198 0.758945C0.76623 0.762455 0.75073 0.766725 0.73511 0.770995C0.71936 0.775325 0.70361 0.779575 0.68817 0.784635C0.67255 0.789765 0.65717 0.795715 0.64172 0.801635C0.62714 0.807255 0.61249 0.812745 0.59821 0.819005C0.58228 0.825985 0.5667 0.833865 0.55108 0.841735C0.53795 0.848325 0.52483 0.854765 0.51208 0.861905C0.49645 0.870665 0.4812 0.880285 0.46594 0.889955C0.45373 0.897705 0.4414 0.905395 0.42956 0.913665C0.41522 0.923615 0.40137 0.934295 0.38751 0.945095C0.37518 0.954655 0.36297 0.964235 0.35114 0.974365C0.33881 0.984895 0.3269 0.995975 0.31494 1.00724C0.30231 1.01914 0.28992 1.03123 0.27789 1.04377C0.27301 1.04893 0.26764 1.0534 0.26282 1.05865C0.25714 1.06488 0.25238 1.0716 0.24689 1.07791C0.23523 1.09131 0.22388 1.10492 0.21289 1.11893C0.20318 1.13138 0.19372 1.14392 0.18469 1.1567C0.17505 1.17028 0.16583 1.18407 0.15686 1.19814C0.14801 1.21209 0.1394 1.2261 0.13122 1.24036C0.12341 1.25415 0.11603 1.26818 0.10882 1.28237C0.10126 1.29732 0.0938699 1.31232 0.0870299 1.32758C0.0806199 1.34201 0.07471 1.35668 0.06897 1.37151C0.06293 1.38701 0.05706 1.40251 0.05182 1.41826C0.04682 1.43334 0.0423599 1.44861 0.0380199 1.46402C0.0335099 1.48013 0.0292301 1.49628 0.0255101 1.51257C0.0220901 1.5278 0.0191 1.54317 0.01636 1.55868C0.0133 1.57586 0.0106201 1.59304 0.00848007 1.61031C0.00665007 1.62517 0.00515998 1.64013 0.00401998 1.65515C0.00255998 1.67362 0.00161999 1.69208 0.00121999 1.71054C0.00103999 1.71854 0 1.72632 0 1.73438V18.7344C0.00061 19.2646 0.21151 19.773 0.58646 20.1479C0.9614 20.5229 1.46975 20.7338 2 20.7344H24C24.5302 20.7338 25.0386 20.5229 25.4135 20.1479C25.7885 19.773 25.9994 19.2646 26 18.7344V1.73438C26 1.72632 25.999 1.71854 25.9988 1.71055ZM2 4.00766L9.3383 10.7344L2 17.4611V4.00766ZM3.57092 18.7344L10.8182 12.0911L12.3242 13.4716C12.5087 13.6406 12.7498 13.7344 13 13.7344C13.2502 13.7344 13.4913 13.6406 13.6758 13.4716L15.1818 12.091L22.4291 18.7344H3.57092ZM16.6618 10.7344L24.0002 4.00747L24.0012 17.4621L16.6618 10.7344Z" fill="white"/>
</svg>
